<?xml version="1.0" encoding="UTF-8"?>
<svg id="Layer_2" data-name="Layer 2" xmlns="http://www.w3.org/2000/svg" viewBox="0 0 428.96 279.84">
  <defs>
    <style>
      .cls-1 {
        fill: #181a1e;
      }
    </style>
  </defs>
  <g id="Layer_1-2" data-name="Layer 1">
    <g>
      <path class="cls-1" d="M75.09,44.01l.65-21.93c0-6.16-.63-10.53-1.88-13.13-1.25-2.6-3.88-3.97-7.88-4.11-3.28-.14-4.91-.92-4.91-2.31,0-1.49,.96-2.24,2.89-2.24,2.21,0,5.58,.11,10.1,.33,5.82,.26,9.07,.39,9.74,.39,8.18,0,15.35-.19,21.51-.58,1.15-.1,1.97-.14,2.45-.14,1.83,0,2.74,.68,2.74,2.02,0,1.49-1.04,2.27-3.11,2.31-3.37,.05-5.77,.51-7.19,1.37-1.42,.87-2.41,2.21-2.96,4.01-.55,1.81-1,8.17-1.34,19.1-.34,10.92-.51,18.43-.51,22.53,0,16.97,.11,27.36,.33,31.17,.22,3.81,1.08,6.46,2.6,7.96s4.11,2.24,7.77,2.24c2.26,0,3.4,.72,3.4,2.17,0,1.25-.87,1.88-2.6,1.88-.58,0-1.83-.07-3.75-.22l-19.99-.72c-1.2,0-3.51,.1-6.93,.29-6.54,.43-10.78,.65-12.7,.65-1.73,0-2.6-.7-2.6-2.1,0-1.25,.72-1.88,2.16-1.88,3.45,0,5.97-.6,7.55-1.81,1.58-1.2,2.73-3.98,3.45-8.31,.72-4.34,1.08-12.98,1.08-25.95,0-1.35-.05-3.37-.14-6.07-8.43-.24-15.9-.36-22.4-.36-7.47,0-13.37,.24-17.71,.72-.53,9.68-.8,18.45-.8,26.31,0,5.59,.61,9.47,1.84,11.64,1.23,2.17,3.79,3.35,7.7,3.54,1.88,.1,2.82,.8,2.82,2.1s-.99,2.02-2.97,2.02c-.73,0-1.79-.07-3.18-.22-5.74-.53-11.75-.79-18.02-.79-2.94,0-6.88,.13-11.8,.39-3.48,.22-5.72,.33-6.73,.33-2.51,0-3.76-.72-3.76-2.17,0-1.16,.99-1.85,2.96-2.1,3.71-.38,6.23-1.18,7.55-2.38,1.32-1.2,2.31-3.48,2.96-6.82,.65-3.35,1.04-12.89,1.16-28.63,.12-15.74,.18-24.33,.18-25.78,0-7.12-.25-12.29-.76-15.49-.51-3.2-1.36-5.36-2.57-6.46-1.2-1.11-3.06-1.81-5.56-2.09-1.93-.29-3.13-.57-3.61-.83-.48-.26-.72-.83-.72-1.7C1.59,.72,2.41,0,4.05,0c2.08,0,5.57,.19,10.5,.58,2.75,.19,5.86,.29,9.34,.29L44.3,.14c2.36,0,3.55,.75,3.55,2.24s-.96,2.17-2.89,2.17c-3.18,0-5.37,.39-6.58,1.16-1.2,.77-2.1,2.29-2.67,4.56s-.87,6.66-.87,13.18l.14,20.56c6.12,.63,12.72,.94,19.8,.94s13.8-.31,20.31-.94Z"/>
      <path class="cls-1" d="M148.76,70.49c-.03-2.06-.16-5.37-.39-9.93-.01-.23-.29-.35-.45-.19-1.34,1.34-3.97,3.05-7.89,5.12-4,2.13-6.67,4.01-8.02,5.65-1.35,1.69-2.02,4.13-2.02,7.32,0,3.38,.71,5.95,2.13,7.72,1.42,1.76,3.17,2.65,5.24,2.65,2.24,0,4.3-1.68,5.05-4,.43-1.34,.43-2.34,1.43-2.34s2.09,2.96,1,6c-1.19,3.32-3.81,5.57-6.47,6.81-3.04,1.42-6.09,2.13-9.18,2.13-4.91,0-8.71-1.48-11.38-4.45-2.67-2.97-4.01-6.58-4.01-10.82,0-3.28,.81-6.21,2.42-8.8,1.61-2.58,3.61-4.58,5.99-6.01,2.38-1.42,6.31-3.13,11.79-5.11,4.62-1.64,7.71-2.93,9.27-3.87,1.56-.94,2.87-2.31,3.93-4.12,1.06-1.81,1.59-4.15,1.59-7.03,0-3.16-.79-5.69-2.38-7.59-1.58-1.89-3.77-2.84-6.55-2.84-2.4,0-4.1,.6-5.11,1.8-1.01,1.25-1.78,3.24-2.3,5.97-1.11,5.47-4.07,8.2-8.89,8.2-1.98,0-3.66-.58-5.06-1.73-1.4-1.16-2.1-2.82-2.1-4.99,0-4.63,2.52-8.08,7.55-10.37,5.03-2.29,11.04-3.43,18.03-3.43,6.02,0,10.92,.92,14.71,2.75,3.78,1.83,6.2,3.95,7.26,6.36,1.06,2.41,1.59,6.17,1.59,11.27l-.14,17.13c0,9.01,.3,14.79,.9,17.35,.6,2.55,1.89,3.83,3.87,3.83,.29,0,.67-.02,1.16-.07,.96-.1,1.61-.14,1.95-.14,1.97,0,2.96,.55,2.96,1.66,0,.72-.41,1.34-1.23,1.84-.82,.51-3.29,1.15-7.41,1.92s-7.84,1.16-11.17,1.16-5.6-.63-6.83-1.9c-.82-.84-1.42-2.09-1.8-3.73-.34-1.47-.08-2.67,.03-4.17,0,0,.94-16.49,.93-16.99Z"/>
      <path class="cls-1" d="M200.95,41.7c2.6-2.96,5.37-5.18,8.31-6.66,2.94-1.48,6.05-2.22,9.32-2.22,6.75,0,13.17,2.98,19.26,8.93,6.09,5.95,9.14,13.58,9.14,22.87,0,8.72-3.03,16.27-9.08,22.66-6.06,6.38-13.21,9.58-21.46,9.58-2.94,0-5.79-.42-8.54-1.26s-5.43-2.11-8.04-3.79c0,19.24,.53,30.45,1.6,33.65,1.07,3.2,3.92,4.89,8.58,5.09,1.7,.05,2.54,.7,2.54,1.95s-1.13,1.95-3.4,1.95c-1.3,0-3.3-.07-6-.2-5.64-.35-10.55-.52-14.74-.52-2.84,0-6.29,.17-10.34,.51-1.98,.14-3.23,.22-3.76,.22-2.5,0-3.76-.63-3.76-1.88,0-1.16,1.35-1.86,4.05-2.1,4.38-.43,7.01-3.12,7.88-8.06,.87-4.94,1.3-21.81,1.3-50.63l-.43-23.56c0-4.58-.55-7.54-1.65-8.89-1.1-1.35-2.85-2.14-5.24-2.39-1.82-.19-2.73-.87-2.73-2.02,0-1.4,1.03-2.1,3.1-2.1,5.85,0,11.48-.09,16.88-.27,3.96-.13,7.26,3.01,7.34,6.98h0c0,.29-.05,1.02-.14,2.18Zm25.66,25.48c0-8.76-1.29-15.55-3.87-20.39s-5.94-7.25-10.08-7.25-7.43,2.57-9.58,7.72c-2.14,5.15-3.22,12.9-3.22,23.24,0,8.18,1.04,13.8,3.11,16.85,2.07,3.06,5.37,4.58,9.9,4.58s8.01-2.07,10.3-6.21c2.29-4.14,3.43-10.32,3.43-18.55Z"/>
      <path class="cls-1" d="M278.1,41.7c2.6-2.96,5.37-5.18,8.31-6.66,2.94-1.48,6.05-2.22,9.32-2.22,6.75,0,13.17,2.98,19.26,8.93,6.09,5.95,9.14,13.58,9.14,22.87,0,8.72-3.03,16.27-9.08,22.66-6.06,6.38-13.21,9.58-21.46,9.58-2.94,0-5.79-.42-8.54-1.26s-5.43-2.11-8.04-3.79c0,19.24,.53,30.45,1.6,33.65,1.07,3.2,3.92,4.89,8.58,5.09,1.7,.05,2.54,.7,2.54,1.95s-1.13,1.95-3.4,1.95c-1.3,0-3.3-.07-6-.2-5.64-.35-10.55-.52-14.74-.52-2.84,0-6.29,.17-10.33,.51-1.98,.14-3.23,.22-3.76,.22-2.5,0-3.76-.63-3.76-1.88,0-1.16,1.35-1.86,4.05-2.1,4.38-.43,7.01-3.12,7.88-8.06,.87-4.94,1.3-21.81,1.3-50.63l-.43-23.56c0-4.58-.55-7.54-1.65-8.89-1.1-1.35-2.85-2.14-5.24-2.39-1.82-.19-2.73-.87-2.73-2.02,0-1.4,1.03-2.1,3.1-2.1,5.85,0,11.48-.09,16.88-.27,3.96-.13,7.26,3.01,7.34,6.98h0c0,.29-.05,1.02-.14,2.18Zm25.66,25.48c0-8.76-1.29-15.55-3.87-20.39s-5.94-7.25-10.08-7.25-7.43,2.57-9.58,7.72c-2.14,5.15-3.22,12.9-3.22,23.24,0,8.18,1.04,13.8,3.11,16.85,2.07,3.06,5.37,4.58,9.9,4.58s8.01-2.07,10.3-6.21c2.29-4.14,3.43-10.32,3.43-18.55Z"/>
      <path class="cls-1" d="M370.8,78.57c.18,.41,.77,.39,.92-.03l5.5-15.24c3.21-9.09,4.82-15.33,4.82-18.7,0-4-2.27-6.32-6.81-6.94-2.03-.34-3.04-1.04-3.04-2.1,0-1.35,.99-2.02,2.97-2.02,.77,0,2.17,.12,4.2,.36,2.12,.24,4.64,.36,7.53,.36,1.93,0,4.28-.14,7.03-.43,2.32-.29,3.65-.43,3.98-.43,2.32,0,3.48,.71,3.48,2.13,0,.8-.75,1.4-2.26,1.77-3.74,1.02-6.5,3.1-8.29,6.23-1.8,3.13-5.54,12.85-11.25,29.14-7.43,21.17-12.82,35.32-16.17,42.45-3.35,7.13-7.06,12.22-11.14,15.26s-8.42,4.56-13.05,4.56c-4.15,0-7.39-1.02-9.73-3.07-2.34-2.05-3.51-4.69-3.51-7.91,0-2.07,.83-4.04,2.49-5.89,1.66-1.86,3.84-2.78,6.54-2.78,4.34,0,7.08,2.58,8.24,7.73,.63,2.6,1.59,3.9,2.9,3.9,3.28,0,6.82-3.34,10.6-10.02,3.79-6.68,5.68-11.66,5.68-14.94,0-1.64-1.5-6.06-4.51-13.27-3.01-7.21-7.05-16.55-12.13-28.02-5.08-11.48-8.32-18.07-9.72-19.78-1.41-1.71-3.03-2.79-4.87-3.22-1.89-.39-2.84-1.06-2.84-2.02,0-1.4,1.23-2.1,3.69-2.1,.58,0,2.53,.17,5.87,.51,2.03,.24,4.63,.36,7.82,.36,5.26,0,9.87-.19,13.83-.58l3.11-.29c1.93,0,2.9,.65,2.9,1.95s-1.16,2.1-3.48,2.53c-1.54,.29-2.75,.95-3.62,1.99-.87,1.04-1.3,2.04-1.3,3,0,1.06,1.28,5.07,3.85,12.03,2.46,6.69,5.71,14.53,9.74,23.52Z"/>
      <path class="cls-1" d="M251.84,166.48l-1.82-5.06c-.86-2.88-1.3-5.88-1.31-8.88,0-2.97-.16-9.18-2.35-10.57-.87-.55-1.9-.78-2.93-.78h-.27c-2.51,0-5.71,4.1-9.62,4.29-10.76,.52-28.71,.78-37.7,.79-8.99,0-18.95-.27-29.7-.79-3.91-.19-7.11-4.29-9.62-4.29h-.27c-1.03,0-2.06,.23-2.93,.78-2.18,1.39-2.34,7.6-2.35,10.57,0,3.01-.45,6-1.31,8.88l-1.82,5.06c-.65,2.81,2,4.41,3.82,4.23,2.18-.23,7.18-2.23,11.18-10.23,1.79-3.58,5.22-6.08,9-7,3-.72,7.9-.85,14-1,2.88-.07,5.42,2.22,5.61,5.1,.41,6.12,.62,13.24,.62,21.36,0,11.32-.22,22.25-.65,32.77-.43,10.53-.96,16.88-1.59,19.04-.62,2.17-1.69,3.76-3.18,4.77-1.49,1.01-5.01,1.71-10.55,2.1-1.88,.14-2.82,.82-2.82,2.02,0,1.35,.82,2.02,2.46,2.02l2.03-.07,18.07-.36,26.07,.36,2.03,.07c1.64,0,2.46-.67,2.46-2.02,0-1.2-.94-1.88-2.82-2.02-5.54-.39-9.06-1.08-10.55-2.1-1.49-1.01-2.55-2.6-3.18-4.77-.63-2.17-1.16-8.52-1.59-19.04-.43-10.53-.65-21.45-.65-32.77,0-8.11,.21-15.23,.62-21.36,.19-2.88,2.73-5.17,5.61-5.1,6.1,.15,11,.28,14,1,3.78,.92,7.21,3.42,9,7,4,8,9,10,11.18,10.23,1.82,.19,4.47-1.41,3.82-4.23Z"/>
      <path class="cls-1" d="M266.7,234.51c-2.99,2.84-6,4.98-9.04,6.4s-6.1,2.13-9.18,2.13c-4.92,0-8.71-1.48-11.38-4.45-2.67-2.97-4.01-6.58-4.01-10.82,0-3.28,.8-6.21,2.42-8.8,1.61-2.58,3.61-4.58,5.99-6.01,2.38-1.42,6.31-3.13,11.79-5.11,4.62-1.64,7.7-2.93,9.27-3.87,1.56-.94,2.87-2.32,3.93-4.12s1.59-4.15,1.59-7.02c0-3.16-.79-5.69-2.38-7.59-1.58-1.89-3.77-2.84-6.55-2.84-2.4,0-4.1,.6-5.11,1.8-1.01,1.25-1.78,3.24-2.3,5.97-1.11,5.47-4.07,8.2-8.89,8.2-1.98,0-3.66-.58-5.06-1.73s-2.1-2.82-2.1-4.99c0-4.63,2.52-8.08,7.55-10.37,5.03-2.29,11.04-3.43,18.03-3.43,6.02,0,10.93,.92,14.71,2.75,3.78,1.83,6.2,3.95,7.26,6.36,1.06,2.41,1.59,6.17,1.59,11.27l-.14,17.13c0,9.01,.3,14.79,.9,17.34,.6,2.55,1.89,3.83,3.87,3.83,.29,0,.67-.02,1.16-.07,.96-.1,1.61-.14,1.95-.14,1.97,0,2.96,.55,2.96,1.66,0,.72-.41,1.34-1.23,1.84-.82,.51-3.29,1.14-7.41,1.92s-7.84,1.16-11.17,1.16-5.6-.63-6.83-1.9c-1.23-1.27-1.96-3.43-2.2-6.49Zm.96-28.6c0-.14-.17-.2-.26-.1-1.28,1.37-3.97,3.14-8.07,5.31-4,2.12-6.67,4.01-8.02,5.65-1.35,1.69-2.02,4.13-2.02,7.32,0,3.38,.71,5.95,2.13,7.72,1.42,1.76,3.17,2.64,5.24,2.64,2.79,0,5.4-1.29,7.8-3.88,2.41-2.58,3.62-7.14,3.62-13.66,0-1.98-.14-5.65-.41-11Z"/>
      <path class="cls-1" d="M330.55,177.85c.19,6.75,.29,18.77,.29,36.06l-.22,15.54c0,3.13,.52,5.23,1.55,6.29,1.04,1.06,2.73,1.76,5.09,2.1,2.7,.34,4.05,1.11,4.05,2.31,0,1.3-1.06,1.95-3.18,1.95-1.01,0-2.77-.07-5.28-.22-5.3-.34-10.55-.51-15.75-.51-2.55,0-5.16,.13-7.81,.4-1.59,.21-2.67,.32-3.25,.32-2.12,0-3.18-.65-3.18-1.95s1.4-2,4.19-2.24c3.71-.34,5.78-1.58,6.21-3.72,.43-2.14,.65-6.49,.65-13.04,0-8.48-.13-16.27-.4-23.38-.26-7.11-.76-11.17-1.48-12.18s-2.6-1.69-5.64-2.02c-2.36-.24-3.54-.94-3.54-2.1s1.2-1.83,3.61-2.02l1.52-.14,22.55-1.45Z"/>
      <path class="cls-1" d="M348.09,226.86l-.29-28.43,.22-22.57c0-9.35-.45-15.03-1.34-17.03-.89-2-3.53-3.36-7.91-4.09-2.65-.39-3.97-1.16-3.97-2.31,0-.72,.3-1.22,.9-1.48,.6-.26,2.08-.49,4.45-.69,9.35-.78,17.06-1.92,23.13-3.43,.52-.13,1.01,.26,1.01,.79l.21,59.59c.05,19.37,.28,24.71,.52,26.73,.34,2.92,1.25,26.54,23.82,26.54,9,0,13-5,14-4s-4,5-9,7c-22.25,8.9-41-2-45-21-1.25-5.95-.74-10.22-.74-15.62Z"/>
      <path class="cls-1" d="M345.25,256.57c-.76-2.33,.02-1.99,1.58-.09,33.37,40.61,83.99-.59,64-30-4.35-6.41-10.05-7.95-16.52-11.49-4.95-2.71-8.5-5.14-10.66-7.29-2.89-2.84-4.34-6.62-4.34-11.35,0-5.44,2.1-9.87,6.29-13.26,4.19-3.4,9.35-5.1,15.47-5.1,4.87,0,9.8,1.45,14.82,4.34,.67,.39,1.23,.58,1.66,.58,.63,0,1.11-.53,1.45-1.59,.48-1.35,1.18-2.02,2.1-2.02,.63,0,1.06,.22,1.3,.65,.24,.43,.58,2.69,1.01,6.76,.43,4.07,.65,7.46,.65,10.15,0,1.88-.55,2.82-1.66,2.82s-2.34-1.35-3.54-4.05c-4.1-8.96-10-13.44-17.71-13.44-2.79,0-5.06,.7-6.79,2.1-1.73,1.4-2.6,2.89-2.6,4.48,0,2.02,1.11,3.88,3.32,5.57,2.22,1.73,6.71,3.71,12.94,7.01,7.82,4.14,12.9,9.87,14.82,12.14,5.07,5.99,9.23,17.72,3,36-9.56,28.08-32.37,31.74-48,30-18-2-30-15-32.58-22.91Z"/>
      <g>
        <path class="cls-1" d="M324.22,165.98c-.76,.26-1.54,.34-2.33,.43-.91,.1-1.83,.19-2.66,.61-.57,.29-1.13,.61-1.68,.93-.79,.46-1.59,.89-2.47,1.13-1.65,.45-3.27-.08-4.25-1.46-.9-1.26-.9-2.61-.26-3.97,.54-1.17,1.12-2.33,1.65-3.5,.39-.86,.74-1.74,1.09-2.62,.31-.76,.76-1.43,1.43-1.92,.99-.74,2.09-.86,3.25-.49,.85,.28,1.6,.75,2.35,1.23,.79,.51,1.57,1.03,2.39,1.49,.65,.36,1.35,.63,2.01,.95,.52,.25,1,.56,1.4,.97,.88,.88,1.08,1.97,.87,3.15-.22,1.27-.98,2.15-2.09,2.75-.22,.12-.46,.22-.69,.32Z"/>
        <path class="cls-1" d="M313.44,149.93c.34,1.05,.56,1.89,.57,2.76,0,.89-.22,1.71-.75,2.42-.74,1.01-1.85,1.35-3.03,.95-1.05-.35-1.77-1.07-2.24-2.05-.75-1.53-.74-3.09-.13-4.67,.3-.76,.65-1.48,1.2-2.09,.29-.31,.61-.56,1.03-.67,.53-.14,1,.03,1.42,.34,.63,.47,1.04,1.1,1.39,1.79,.23,.46,.42,.94,.54,1.21Z"/>
        <path class="cls-1" d="M314.85,150.31c-.48-1.47-.63-2.81-.54-4.17,.06-.92,.67-1.48,1.59-1.48,.61,0,1.18,.18,1.74,.42,.98,.43,1.89,.96,2.57,1.81,.98,1.22,1.47,2.6,1.19,4.18-.13,.71-.44,1.34-.97,1.85-.78,.75-1.94,.89-3.04,.39-.99-.45-1.66-1.21-2.14-2.16-.17-.33-.3-.68-.38-.86Z"/>
        <path class="cls-1" d="M327.51,151.62c.56,1.76,.41,3.24-.66,4.56-.63,.79-1.45,1.17-2.47,.97-.89-.17-1.49-.73-1.89-1.52-.43-.86-.52-1.77-.46-2.71,.07-1.08,.34-2.1,.89-3.03,.12-.21,.28-.4,.44-.58,.52-.53,1.19-.65,1.86-.34,.77,.35,1.31,.96,1.75,1.66,.23,.37,.41,.76,.52,.99Z"/>
        <path class="cls-1" d="M310.6,158.91c.25,.73,.29,1.46-.04,2.18-.58,1.24-1.98,1.79-3.29,1.3-2.04-.76-3.27-2.65-3.17-4.88,.03-.66,.13-1.3,.48-1.88,.38-.62,.95-.87,1.68-.72,.47,.09,.89,.3,1.29,.54,1.13,.67,2.06,1.55,2.7,2.71,.13,.24,.24,.5,.36,.76Z"/>
      </g>
    </g>
  </g>
</svg>