<?xml version="1.0" encoding="UTF-8"?>
<svg id="Layer_2" data-name="Layer 2" xmlns="http://www.w3.org/2000/svg" viewBox="0 0 23.74 24.57">
  <defs>
    <style>
      .cls-1 {
        fill: #181a1e;
      }
    </style>
  </defs>
  <g id="Layer_1-2" data-name="Layer 1">
    <g>
      <path class="cls-1" d="M20.13,21.31c-.76,.26-1.54,.34-2.33,.43-.91,.1-1.83,.19-2.66,.61-.57,.29-1.13,.61-1.68,.93-.79,.46-1.59,.89-2.47,1.13-1.65,.45-3.27-.08-4.25-1.46-.9-1.26-.9-2.61-.26-3.97,.54-1.17,1.12-2.33,1.65-3.5,.39-.86,.74-1.74,1.09-2.62,.31-.76,.76-1.43,1.43-1.92,.99-.74,2.09-.86,3.25-.49,.85,.28,1.6,.75,2.35,1.23,.79,.51,1.57,1.03,2.39,1.49,.65,.36,1.35,.63,2.01,.95,.52,.25,1,.56,1.4,.97,.88,.88,1.08,1.97,.87,3.15-.22,1.27-.98,2.15-2.09,2.75-.22,.12-.46,.22-.69,.32Z"/>
      <path class="cls-1" d="M9.35,5.26c.34,1.05,.56,1.89,.57,2.76,0,.89-.22,1.71-.75,2.42-.74,1.01-1.85,1.35-3.03,.95-1.05-.35-1.77-1.07-2.24-2.05-.75-1.53-.74-3.09-.13-4.67,.3-.76,.65-1.48,1.2-2.09,.29-.31,.61-.56,1.03-.67,.53-.14,1,.03,1.42,.34,.63,.47,1.04,1.1,1.39,1.79,.23,.46,.42,.94,.54,1.21Z"/>
      <path class="cls-1" d="M10.76,5.64c-.48-1.47-.63-2.81-.54-4.17C10.28,.55,10.88,0,11.8,0c.61,0,1.18,.18,1.74,.42,.98,.43,1.89,.96,2.57,1.81,.98,1.22,1.47,2.6,1.19,4.18-.13,.71-.44,1.34-.97,1.85-.78,.75-1.94,.89-3.04,.39-.99-.45-1.66-1.21-2.14-2.16-.17-.33-.3-.68-.38-.86Z"/>
      <path class="cls-1" d="M23.42,6.95c.56,1.76,.41,3.24-.66,4.56-.63,.79-1.45,1.17-2.47,.97-.89-.17-1.49-.73-1.89-1.52-.43-.86-.52-1.77-.46-2.71,.07-1.08,.34-2.1,.89-3.03,.12-.21,.28-.4,.44-.58,.52-.53,1.19-.65,1.86-.34,.77,.35,1.31,.96,1.75,1.66,.23,.37,.41,.76,.52,.99Z"/>
      <path class="cls-1" d="M6.51,14.25c.25,.73,.29,1.46-.04,2.18-.58,1.24-1.98,1.79-3.29,1.3C1.13,16.96-.09,15.08,0,12.84c.03-.66,.13-1.3,.48-1.88,.38-.62,.95-.87,1.68-.72,.47,.09,.89,.3,1.29,.54,1.13,.67,2.06,1.55,2.7,2.71,.13,.24,.24,.5,.36,.76Z"/>
    </g>
  </g>
</svg>